<?xml version="1.0" encoding="utf-8"?>
<!-- Generator: Adobe Illustrator 19.1.0, SVG Export Plug-In . SVG Version: 6.00 Build 0)  -->
<svg version="1.1" id="Lager_1" xmlns="http://www.w3.org/2000/svg" xmlns:xlink="http://www.w3.org/1999/xlink" x="0px" y="0px"
	 viewBox="0 0 768 768" style="enable-background:new 0 0 768 768;" xml:space="preserve">
<style type="text/css">
	.st0{fill:#836BDD;}
	.st1{fill:#FFFFFF;}
</style>
<rect class="st0" width="768" height="768"/>
<path marker-end="none" marker-start="none" class="st1" d="M257.5,557.4c-43.6-52.2-61.8-88-77.8-153.4c-8.8-36-9.9-86.3-2.9-135
	c-2.6,0.1-5.3,0.2-8.2,0.5c-3.8,0.3-7.6,0.8-11.3,1.2c-7.1,0.8-14.4,1.7-21.7,1.8h0c-2.1,0-3.7-1.7-3.7-3.7c0-2.1,1.7-3.7,3.7-3.7
	c6.9,0,14-0.9,20.9-1.7c3.9-0.5,7.7-0.9,11.6-1.3c3.5-0.3,6.8-0.5,10-0.5c0.7-4.4,1.5-8.8,2.4-13.2c-2.5-0.6-5.4-1.2-8.5-1.7
	c-10.7-1.7-23.5-2.5-31.9-2c-2.1,0.1-3.8-1.4-4-3.5c-0.1-2.1,1.4-3.8,3.5-4c8.9-0.6,22.4,0.2,33.6,2c3.2,0.5,6.2,1.1,8.9,1.8
	c1.2-5.5,2.6-11.1,4.1-16.5c12.1-43.4,49-102.9,64.9-104.3c0.1,0,0.2,0,0.4,0c0.8,0,2.2,0.2,4,2c8.8,8.6,12.9,37.4,12.3,45.5
	c-0.1,1.2,0.4,2.4,1.4,3.2c1,0.8,2.2,1,3.4,0.7c13.8-3.9,39.7,0,53.7,3.5c1.4,0.3,2.8-0.1,3.8-1.2c18.4-21.9,34.8-33.8,44.9-32.8
	c6.7,2.9,0.6,37.2-1.4,48.5c-0.2,1.2,0.2,2.5,1.1,3.4c8.7,8.3,15.2,18.5,21.1,33.4c6.7-4.6,12.3-6.1,18.2-7.8
	c2.6-0.7,5.4-1.5,8.5-2.6c1.9-0.7,4.1,0.3,4.8,2.2c0.7,1.9-0.3,4.1-2.2,4.8c-3.3,1.2-6.2,2-9,2.8c-6.2,1.8-11.2,3.1-17.5,7.9
	c0.9,2.5,1.7,5,2.5,7.6c0.2-0.1,0.4-0.2,0.7-0.3c10.2-3.6,16.3-5.8,28.1-6.4c2.1-0.1,3.8,1.5,3.9,3.5c0.1,2.1-1.5,3.8-3.5,3.9
	c-10.7,0.6-16.2,2.5-26,6c-0.3,0.1-0.7,0.2-1,0.2c1.1,3.5,2.1,7.1,3.2,10.7c3,10,6,20.3,9.8,31.3c4.8,13.8,10,26.2,16,38
	c10.9,21.5,24.5,41.3,41.6,60.5c2.3,2.6,6.6,6.9,12.1,12.3c27.7,27.6,101.3,100.7,77.6,126.5c-7.4,8.1-22.7,1.7-34.2-5.1
	c-13.3-7.8-25.4-18.3-30.3-22.6c0,0,0,0,0-0.1c1-4,0.9-8,0.8-11.8c0-1.6-0.1-3.3,0-4.9c0.1-2.1-1.5-3.8-3.6-3.9
	c-2.1-0.2-3.8,1.5-3.9,3.6c-0.1,1.8,0,3.6,0,5.4c0.1,3.5,0.2,6.7-0.6,9.8c-0.2,0.7-0.1,1.3,0.1,1.9c-0.2,0.4-0.3,0.8-0.4,1.3
	c-1.2,13.3-6,26.5-13.8,38.2c-7,10.4-16,19.3-26.8,26.4c0,0,0,0,0,0c-10,6.7-21.3,11.7-33.5,15.1c-2-2.5-3.9-4.8-5.8-7.1
	c-4-4.8-7.8-9.3-11.7-15.1c-1.1-1.7-3.5-2.2-5.2-1c-1.7,1.1-2.2,3.5-1,5.2c4.1,6.2,8,10.9,12.2,15.8c2,2.3,4,4.8,6.1,7.4
	c0.3,0.4,0.7,0.6,1,0.8c0,0,0,0.1,0,0.1c4.2,7.4,11.7,14.4,18.9,21c14,13,22.1,21.5,16.7,30c-4,6.2-10.6,9.5-20.3,10.1
	C378.7,650.8,279.5,583.7,257.5,557.4z M513.7,609.1c-14.7-5.5-49.5-30.1-56.1-39.6c8.8-6.3,16.4-13.7,22.8-22.1
	c16.8,24,59.6,45.3,90.6,37.5c14.8-3.7,27.6-14,34.4-27.7c9-17.9,2.9-34.8-1.5-47.2c-2.6-7.3-4.8-13.6-3.1-17c0.9-1.7,3-3.1,6.4-4.1
	c4.2-1.3,8.5,0.5,12.7,5.2c14,15.6,20.7,53.9,12.7,73.2C613.3,614.1,568.9,629.7,513.7,609.1z M313.5,386.5c1.8-1,2.4-3.3,1.4-5.1
	c-2.6-4.6-0.1-20.4,2.8-24.2c0.5,0.2,1,0.5,1.5,0.7c5.2,2.3,14.8,6.7,27.5,0.2c10.6-5.4,15.4-14.8,13.4-25.8
	c-3.1-16.6-20.7-32.2-38.3-34c-18.2-1.9-34.9,3.5-48.2,15.8c-15,13.8-23.8,34.5-23.3,55.4c0,2.1,1.9,3.8,3.8,3.7
	c2.1,0,3.7-1.7,3.7-3.8c-0.4-18.5,7.6-37.5,20.9-49.7c8.2-7.5,22.1-16,42.4-13.8c14.4,1.5,29.3,14.6,31.8,28
	c1,5.4,0.2,12.8-9.5,17.8c-9.6,4.9-16.5,1.8-21-0.3c-0.9-0.4-1.7-0.8-2.6-1.1c-0.3-0.7-0.8-1.3-1.5-1.7c-4.6-2.6-5.9-3.9-7.8-5.9
	c-1.1-1.1-2.5-2.6-4.8-4.5c-1.6-1.3-3.9-1.1-5.3,0.5c-1.3,1.6-1.1,3.9,0.5,5.3c2,1.7,3.2,2.9,4.2,4c1.7,1.7,3.2,3.2,6.6,5.4
	c-5.2,7.7-7,25.4-3.3,32c0.7,1.2,2,1.9,3.3,1.9C312.3,387,312.9,386.8,313.5,386.5z M438.1,323.7c-5.1-10.2-9.7-21-13.9-32.8
	c0.3-0.1,0.6-0.1,0.9-0.2c12.8-5.4,37-3.2,50.3,8c7.3,6.2,10,14,7.8,23.2c-1.3,5.7-4.6,9.2-10,10.9
	C462.4,336.1,446,330.8,438.1,323.7z M328.4,254.4c0-4-5.6-7.3-12.5-7.3c-6.9,0-12.5,3.3-12.5,7.3c0,4,5.6,7.3,12.5,7.3
	C322.7,261.7,328.4,258.4,328.4,254.4z M273.4,240.5c0-8.3-6.1-15-13.5-15s-13.5,6.7-13.5,15c0,8.2,6.1,14.9,13.5,14.9
	S273.4,248.7,273.4,240.5z M370,239.8c0-8.3-6.1-14.9-13.5-14.9c-7.5,0-13.5,6.7-13.5,14.9c0,8.2,6.1,14.9,13.5,14.9
	C363.9,254.7,370,248,370,239.8z"/>
</svg>
